<svg xmlns="http://www.w3.org/2000/svg" viewBox="0 0 24 24" role="img" aria-labelledby="ghTitle">
  <title id="ghTitle">GitHub</title>
  <path fill="#121212" d="M12 .5C5.65.5.5 5.66.5 12.02c0 5.08 3.29 9.38 7.86 10.9.57.1.78-.25.78-.55 0-.27-.01-.98-.02-1.92-3.2.7-3.88-1.55-3.88-1.55-.53-1.34-1.28-1.7-1.28-1.7-1.05-.72.08-.71.08-.71 1.16.08 1.78 1.2 1.78 1.2 1.03 1.77 2.7 1.26 3.36.97.1-.75.4-1.26.72-1.55-2.56-.29-5.25-1.28-5.25-5.72 0-1.26.45-2.28 1.18-3.09-.12-.29-.51-1.46.11-3.04 0 0 .96-.31 3.14 1.18a10.84 10.84 0 0 1 5.72 0c2.18-1.5 3.14-1.18 3.14-1.18.62 1.58.23 2.75.12 3.04.73.81 1.18 1.83 1.18 3.09 0 4.45-2.7 5.42-5.28 5.7.41.36.78 1.07.78 2.15 0 1.55-.01 2.8-.01 3.18 0 .3.2.66.79.55A11.54 11.54 0 0 0 23.5 12C23.5 5.66 18.35.5 12 .5Z"/>
</svg>
