<svg xmlns="http://www.w3.org/2000/svg" viewBox="0 0 24 24" role="img" aria-labelledby="liTitle">
  <title id="liTitle">LinkedIn</title>
  <path fill="#5f5f5f" d="M20.45 20.45h-3.56v-5.59c0-1.34-.03-3.06-1.87-3.06-1.87 0-2.16 1.46-2.16 2.96v5.69H9.3V9h3.42v1.56h.05c.48-.9 1.63-1.86 3.35-1.86 3.58 0 4.24 2.36 4.24 5.42v6.33ZM5.28 7.43a2.06 2.06 0 1 1 0-4.12 2.06 2.06 0 0 1 0 4.12Zm1.78 13.02H3.5V9h3.56v11.45ZM22 0H2C.9 0 0 .87 0 1.95v20.1C0 23.13.9 24 2 24h20c1.1 0 2-.87 2-1.95V1.95C24 .87 23.1 0 22 0Z"/>
</svg>

